<svg width="39" height="39" viewBox="0 0 39 39" fill="none" xmlns="http://www.w3.org/2000/svg">
<circle cx="19.5" cy="19.5" r="19.5" fill="white"/>
<path d="M24.824 7.19036L17.816 11.4784H17.368L22.84 6.61436L24.824 7.19036ZM28.504 21.3024H28.76C27.736 23.5104 26.2 25.6864 24.152 27.0304C24.088 27.0944 24.024 27.1264 23.96 27.1584C22.68 27.9584 21.208 28.4704 19.576 28.4704C17.752 28.4704 16.216 27.9904 14.968 27.1584C13.08 25.8784 11.992 23.7344 11.992 21.2064C11.992 16.9184 15.768 13.1424 19.736 12.7584C19.736 12.7584 20.792 12.6624 21.432 12.7584C21.976 12.8224 22.68 12.9504 23.416 13.3024C23.448 13.3344 23.512 13.3664 23.544 13.3664C23.608 13.3984 23.672 13.4304 23.704 13.4624C23.896 13.5584 24.056 13.6864 24.216 13.8144C24.248 13.8144 24.248 13.8144 24.248 13.8144C24.568 14.0704 24.824 14.3584 25.048 14.6464C25.528 15.3184 25.88 16.1824 25.976 17.3344V17.3664V17.3984C25.976 17.6544 25.944 18.8384 24.248 18.8384H13.848C13.816 19.2544 13.784 19.6384 13.784 20.0864C13.784 23.7984 17.016 26.7104 21.112 26.7104C24.632 26.7104 26.84 24.6304 28.504 21.3024ZM13.912 18.4224C13.912 18.4864 13.912 18.5504 13.88 18.6464H22.488C22.968 18.6464 23.384 18.2624 23.384 17.7504C23.352 16.5344 23.096 15.6704 22.712 15.0304C22.712 15.0304 22.712 15.0304 22.68 15.0304C22.328 14.4224 21.848 14.0384 21.368 13.7824C21.336 13.7824 21.304 13.7824 21.272 13.7504C21.208 13.7184 21.112 13.6864 21.048 13.6544C20.632 13.4944 20.12 13.3984 19.544 13.3984C17.144 13.3984 15.224 14.5504 14.328 16.8544C14.328 16.8864 14.328 16.8864 14.328 16.9184C14.232 17.1104 14.168 17.3024 14.136 17.5264C14.04 17.8464 13.912 18.2304 13.912 18.4224Z" fill="black"/>
</svg>
